<svg xmlns="http://www.w3.org/2000/svg" xmlns:xlink="http://www.w3.org/1999/xlink" width="20" height="20" viewBox="0 0 20 20">
    <defs>
        <path id="73mv0cicta" d="M0 0L20 0 20 20 0 20z"/>
    </defs>
    <g fill="none" fill-rule="evenodd">
        <g>
            <g>
                <g transform="translate(-803 -1598) translate(580 1580) matrix(-1 0 0 1 243 18)">
                    <mask id="03d6fnn4cb" fill="#fff">
                        <use xlink:href="#73mv0cicta"/>
                    </mask>
                    <path fill="#246FF8" d="M17.313 10.55c.327 0 .593-.25.593-.556 0-.307-.266-.557-.593-.557H4.399L8.93 4.63c.104-.103.157-.239.15-.384-.008-.15-.08-.291-.198-.388-.117-.096-.27-.15-.424-.15-.021 0-.043.002-.065.004-.144.014-.266.078-.346.18L2.648 9.629c-.083.088-.138.255-.148.375.007.106.03.235.147.352l.001.002 5.39 5.73c.091.11.217.176.36.19.159.017.322-.036.45-.14.137-.113.222-.278.226-.443.003-.091-.019-.222-.139-.33L4.399 10.55h12.913z" mask="url(#03d6fnn4cb)"/>
                </g>
            </g>
        </g>
    </g>
</svg>
