<svg xmlns="http://www.w3.org/2000/svg" width="95" height="24" viewBox="0 0 95 24">
    <g fill="none" fill-rule="evenodd">
        <g fill="#0056FF">
            <g>
                <g>
                    <path d="M50.193 8.44c3.156 0 5.253 2.346 5.253 5.357 0 2.99-1.89 5.356-5.17 5.356-1.08 0-2.678-.332-3.405-1.453v5.481h-2.533V8.668h2.534v1.411c.789-1.141 2.159-1.639 3.321-1.639zm16.215-.02c1.37 0 2.678.643 3.26 1.66V8.668h2.512v10.236h-2.512V17.41c-.582 1.205-2.18 1.786-3.322 1.807-3.032.02-5.274-1.848-5.274-5.44 0-3.53 2.346-5.378 5.336-5.357zm12.768-.042c.244 0 .489.011.731.039.29.033.576.088.855.171.275.082.542.19.796.324.268.14.52.306.759.492.271.212.516.448.752.699l-1.904 1.383c-.583-.478-1.283-.72-1.947-.72-1.703 0-2.948 1.245-2.948 3.03 0 1.952 1.328 2.99 2.906 2.99.793 0 1.585-.221 2.202-.815l1.969 1.43c-.267.23-.516.478-.79.693-.245.192-.505.365-.78.512-.26.14-.533.257-.815.348-.282.092-.572.157-.865.199-.305.044-.613.063-.92.063-2.97 0-5.44-1.786-5.44-5.42 0-3.633 2.47-5.418 5.44-5.418zm9.897-.021c3.426 0 5.564 2.118 5.17 6.332h-7.994c.166 1.267 1.266 2.18 3.052 2.18.91 0 2.096-.335 2.694-.91l1.87 1.358c-.314.302-.632.609-.998.847-.532.346-1.127.594-1.739.76-.608.165-1.239.25-1.868.25-3.53 0-5.627-2.18-5.627-5.46 0-3.115 2.118-5.357 5.44-5.357zM16.758 8.5c3.26 0 5.356 2.408 5.356 5.336 0 2.948-2.014 5.336-5.336 5.336-3.322 0-5.315-2.388-5.315-5.336 0-2.928 2.035-5.336 5.295-5.336zm9.353.207v5.357c0 1.557.852 2.74 2.471 2.74 1.557 0 2.616-1.307 2.616-2.864V8.707h2.512v10.257h-2.438V17.58c-1.055 1.033-2.03 1.528-3.458 1.528-2.45 0-4.236-1.847-4.236-5.024V8.707h2.533zM2.512 4.41v5.589C3.54 9.015 4.502 8.54 5.897 8.54c2.45 0 4.235 1.848 4.235 5.025v5.377H7.599v-5.356c0-1.558-.851-2.74-2.47-2.74-1.558 0-2.617 1.307-2.617 2.864v5.232H0V4.41h2.512zm38.186 4.03c.908-.035 1.843.165 2.582.714.03.023.3.227.288.248l-1.162 2.03c.016-.032-.184-.16-.21-.178-.106-.075-.22-.141-.338-.197-.484-.23-1.006-.26-1.527-.174-.49.082-.98.266-1.376.57-.649.494-.885 1.304-.885 2.092v5.398h-2.533V8.707h2.534V9.89c.164-.262.357-.507.587-.715.566-.513 1.292-.705 2.04-.734zm18.714-4.03v14.494h-2.513V4.41h2.513zm7.225 6.272c-1.682 0-3.032 1.142-3.032 3.094s1.35 3.114 3.032 3.114c3.986 0 3.986-6.208 0-6.208zm-49.859.123c-1.827 0-2.782 1.494-2.782 3.03 0 1.558.934 3.011 2.782 3.011 1.848 0 2.782-1.453 2.782-3.01 0-1.537-1.08-3.031-2.782-3.031zm33.228.085c-1.827 0-2.906 1.308-2.906 2.907 0 1.598 1.183 2.906 2.906 2.906 1.724 0 2.907-1.308 2.907-2.906 0-1.599-1.08-2.907-2.907-2.907zm39.15-.29c-1.37 0-2.492.664-2.865 1.992h5.522c-.166-1.328-1.204-1.993-2.657-1.993zM84.015.167l6.004 4.512-.83.859-5.174-3.889-4.335 3.257-.83-.86L84.015.169z" transform="translate(-20 -12) translate(20 12)"/>
                </g>
            </g>
        </g>
    </g>
</svg>
